<svg width="201" height="200" viewBox="0 0 201 200" fill="none" xmlns="http://www.w3.org/2000/svg">
<path d="M66.6772 0C44.4515 0 22.2257 0 0 0C0 22.2892 0 44.4832 0 66.6772C22.1622 66.6772 44.2927 66.6772 66.6772 66.6772C66.6772 44.388 66.6772 22.194 66.6772 0ZM57.0567 57.0249C41.3081 57.0249 25.5279 57.0249 9.62057 57.0249C9.62057 41.2764 9.62057 25.4961 9.62057 9.58882C25.4644 9.58882 41.2129 9.58882 57.0567 9.58882C57.0567 25.4009 57.0567 41.1494 57.0567 57.0249ZM133.323 0C133.323 22.194 133.323 44.388 133.323 66.6772C155.675 66.6772 177.838 66.6772 200 66.6772C200 44.4515 200 22.2257 200 0C177.774 0 155.548 0 133.323 0ZM190.348 57.0249C174.599 57.0249 158.819 57.0249 142.912 57.0249C142.912 41.1811 142.912 25.4326 142.912 9.58882C158.724 9.58882 174.472 9.58882 190.348 9.58882C190.348 25.3691 190.348 41.1494 190.348 57.0249ZM0 200C22.2257 200 44.4515 200 66.6772 200C66.6772 177.806 66.6772 155.612 66.6772 133.323C44.3245 133.323 22.1622 133.323 0 133.323C0 155.548 0 177.774 0 200ZM9.62057 142.975C25.3691 142.975 41.1494 142.975 57.0249 142.975C57.0249 158.692 57.0249 174.472 57.0249 190.411C41.1811 190.411 25.4326 190.411 9.62057 190.411C9.62057 174.599 9.62057 158.851 9.62057 142.975ZM85.7279 19.0189H85.6961V19.0506H85.7279C85.7279 19.0506 85.7279 19.0506 85.7279 19.0189ZM95.1897 9.62057C98.4283 9.62057 101.508 9.62057 104.779 9.62057C104.779 15.939 104.779 22.2575 104.779 28.5442C107.922 28.5442 111.033 28.5442 114.336 28.5442C114.336 25.3056 114.336 22.2257 114.336 18.9871C117.574 18.9871 120.654 18.9871 123.797 18.9871C123.797 12.5417 123.797 6.28671 123.797 0C111.097 0 98.3966 0 85.6961 0C85.6961 6.35021 85.7279 12.6687 85.7279 19.0189C88.8077 19.0189 91.9193 19.0189 95.158 19.0189C95.1897 15.8755 95.1897 12.7957 95.1897 9.62057ZM19.1141 104.81C15.8755 104.81 12.7957 104.81 9.49357 104.81C9.49357 101.508 9.49357 98.3966 9.49357 95.2532C6.35021 95.2532 3.17511 95.2532 0 95.2532C0 104.779 0 114.304 0 123.829C9.49357 123.829 18.9871 123.829 28.5442 123.829C28.5442 120.527 28.5442 117.415 28.5442 114.336C25.4644 114.336 22.3528 114.336 19.1141 114.336C19.1141 111.129 19.1141 108.049 19.1141 104.81ZM28.5442 114.304H28.576L28.5442 114.272V114.304ZM190.443 95.2215C187.3 95.2215 184.188 95.2215 180.886 95.2215C180.886 88.776 180.886 82.521 180.886 76.2978C164.947 76.2978 149.167 76.2978 133.45 76.2978C133.45 79.5047 133.45 82.5845 133.45 85.7596C136.625 85.7596 139.673 85.7596 142.88 85.7596C142.88 88.9665 142.88 92.0463 142.88 95.2532C146.15 95.2532 149.23 95.2532 152.342 95.2532C152.342 98.3966 152.342 101.508 152.342 104.842C149.071 104.842 145.991 104.842 142.943 104.842C142.943 108.049 142.943 111.097 142.943 114.336C146.118 114.336 149.198 114.336 152.373 114.336C152.373 117.606 152.373 120.718 152.373 123.797C146.087 123.797 139.768 123.797 133.291 123.797C133.291 120.559 133.291 117.479 133.291 114.431C130.052 114.431 126.973 114.431 123.766 114.431C123.766 117.606 123.766 120.654 123.766 123.734C120.559 123.734 117.479 123.734 114.24 123.734C114.24 120.559 114.24 117.479 114.24 114.272C110.97 114.272 107.89 114.272 104.779 114.272C104.779 111.097 104.747 107.954 104.747 104.779C101.667 104.779 98.5553 104.779 95.3485 104.779C95.3485 101.603 95.3485 98.5236 95.3485 95.2215C98.4918 95.2215 101.603 95.2215 104.747 95.2215C104.747 92.1416 104.747 89.03 104.747 85.7596C101.603 85.7596 98.5236 85.7596 95.285 85.7596C95.285 79.2824 95.285 72.9957 95.285 66.6772C98.4283 66.6772 101.603 66.6772 104.747 66.6772C104.747 69.7571 104.747 72.8687 104.747 76.1391C107.954 76.1391 111.033 76.1391 114.304 76.1391C114.304 82.6163 114.304 88.903 114.304 95.2215C117.447 95.2215 120.622 95.2215 123.766 95.2215C123.766 76.2343 123.766 57.2154 123.766 38.0695C117.352 38.0695 111.097 38.0695 104.715 38.0695C104.715 34.7992 104.715 31.7193 104.715 28.6077C101.635 28.6077 98.5236 28.6077 95.285 28.6077C95.285 31.7511 95.285 34.8309 95.285 38.006C92.0463 38.006 88.9665 38.006 85.6961 38.006C85.6961 31.6876 85.6961 25.3691 85.6961 19.0824C82.5528 19.0824 79.4094 19.0824 76.3296 19.0824C76.3296 38.2283 76.3296 57.1837 76.3296 76.2661C79.5047 76.2661 82.5528 76.2661 85.6326 76.2661C85.6326 79.4729 85.6326 82.5528 85.6326 85.7596C79.2507 85.7596 72.9957 85.7596 66.709 85.7596C66.709 88.903 66.709 92.0781 66.709 95.2215C69.8524 95.2215 72.9957 95.2215 76.2978 95.2215C76.2978 98.5553 76.2978 101.635 76.2978 104.842C79.5047 104.842 82.5528 104.842 85.7914 104.842C85.7914 108.049 85.7914 111.129 85.7914 114.336C92.2369 114.336 98.4918 114.336 104.779 114.336C104.779 120.686 104.81 127.004 104.81 133.354C107.89 133.354 111.002 133.354 114.209 133.354C114.209 136.53 114.209 139.609 114.209 142.912C111.097 142.912 107.954 142.912 104.81 142.912C104.81 146.055 104.81 149.23 104.81 152.373C107.954 152.373 111.065 152.373 114.336 152.373C114.336 158.882 114.336 165.137 114.336 171.424C117.479 171.424 120.654 171.424 123.797 171.424C123.797 165.106 123.797 158.819 123.797 152.342C130.306 152.342 136.561 152.342 142.943 152.342C142.943 149.135 142.943 146.087 142.943 142.848C146.15 142.848 149.23 142.848 152.437 142.848C152.437 136.403 152.437 130.116 152.437 123.861C155.58 123.829 158.755 123.829 161.899 123.797C161.899 120.654 161.899 117.542 161.899 114.24C168.376 114.24 174.631 114.24 181.045 114.24C181.045 111.002 181.045 107.922 181.045 104.779C184.315 104.779 187.395 104.779 190.475 104.779C190.475 107.922 190.475 111.033 190.475 114.272C193.809 114.272 196.92 114.272 200.032 114.272C200.032 111.097 200.032 107.922 200.032 104.747C196.857 104.747 193.682 104.747 190.538 104.715C190.538 101.54 190.538 98.3966 190.538 95.2215C193.713 95.2215 196.888 95.2215 200.032 95.1897C200.032 92.0146 200.032 88.8395 200.032 85.6644C196.888 85.6644 193.745 85.6644 190.475 85.6644C190.443 89.03 190.443 92.1098 190.443 95.2215ZM95.2532 47.7219C101.572 47.7219 107.827 47.7219 114.177 47.7219C114.177 53.9451 114.177 60.2 114.177 66.6455C111.033 66.6455 107.922 66.6455 104.779 66.6455C104.779 63.5021 104.779 60.3588 104.779 57.1202C101.445 57.1202 98.3648 57.1202 95.2532 57.1202C95.2532 54.0403 95.2532 50.9287 95.2532 47.7219ZM95.2215 66.6455C92.1416 66.6455 89.03 66.6455 85.8231 66.6455C85.8231 63.5021 85.8231 60.4223 85.8231 57.1519C88.9347 57.1519 92.0781 57.1519 95.2215 57.1519C95.2215 60.327 95.2215 63.5021 95.2215 66.6455ZM133.196 142.753C130.148 142.753 127.068 142.753 123.893 142.753C123.893 139.673 123.893 136.593 123.893 133.386C127.036 133.386 130.052 133.386 133.196 133.386C133.196 136.466 133.196 139.546 133.196 142.753ZM171.329 95.2215C165.01 95.2215 158.692 95.2215 152.405 95.2215C152.405 92.1416 152.405 89.03 152.405 85.8231C158.724 85.8231 164.979 85.8231 171.329 85.8231C171.329 88.903 171.329 91.9828 171.329 95.2215ZM190.506 152.373C193.682 152.373 196.857 152.405 200 152.405C200 149.23 200 146.055 200 142.88C196.825 142.88 193.65 142.912 190.506 142.912C190.506 146.055 190.506 149.198 190.506 152.373ZM190.506 142.88V142.848H190.475V142.88C190.475 142.88 190.475 142.88 190.506 142.88ZM76.2026 200C79.3777 200 82.5528 200 85.7279 200C85.7279 196.857 85.7279 193.713 85.7279 190.57C82.4575 190.57 79.3777 190.57 76.2026 190.57C76.2026 193.809 76.2026 196.92 76.2026 200ZM104.779 200C107.954 200 111.129 200 114.304 200C114.304 196.857 114.304 193.713 114.304 190.57C111.033 190.57 107.954 190.57 104.779 190.57C104.779 193.809 104.779 196.92 104.779 200ZM123.829 200C127.004 200 130.179 200 133.354 200C133.354 196.857 133.354 193.713 133.354 190.57C130.084 190.57 127.004 190.57 123.829 190.57C123.829 193.809 123.829 196.92 123.829 200ZM66.6772 85.7279V85.6961H66.6455V85.7279C66.6772 85.7279 66.6772 85.7279 66.6772 85.7279ZM104.747 28.6077H104.779V28.576H104.747C104.747 28.576 104.747 28.576 104.747 28.6077ZM104.747 104.779H104.779V104.747H104.747V104.779ZM123.829 95.2215H123.797V95.2532L123.829 95.2215ZM161.93 123.797H161.899V123.829L161.93 123.797ZM114.304 171.456V171.424H114.272L114.304 171.456ZM104.779 133.323H104.747V133.354H104.779V133.323ZM123.829 171.392H123.797V171.424L123.829 171.392ZM104.779 152.405V152.373H104.747L104.779 152.405ZM28.6077 114.304V114.272H28.576C28.5442 114.272 28.6077 114.304 28.6077 114.304ZM38.0695 114.272V114.304H38.1013V114.272C38.1013 114.272 38.1013 114.272 38.0695 114.272ZM47.5631 85.8549C47.5631 88.903 47.5631 91.9828 47.5631 95.2215C50.8652 95.2215 53.9768 95.2215 57.1202 95.2215C57.1202 92.1098 57.1202 89.03 57.1202 85.6961C60.3588 85.6961 63.5021 85.6961 66.6455 85.6961C66.6455 82.5528 66.6455 79.4412 66.6455 76.2978C50.6747 76.2978 34.9262 76.2978 19.0824 76.2978C19.0824 79.5047 19.0824 82.5845 19.0824 85.6961C22.194 85.6961 25.2739 85.6961 28.6077 85.6961C28.6077 95.3167 28.6077 104.779 28.6077 114.272C31.7828 114.272 34.9262 114.272 38.1013 114.272C38.1013 104.842 38.1013 95.412 38.1013 85.8549C41.2446 85.8549 44.3245 85.8549 47.5631 85.8549ZM19.0824 85.6961H19.0506V85.7279H19.0824V85.6961ZM47.6901 114.304C44.388 114.304 41.2764 114.304 38.133 114.304C38.133 117.447 38.133 120.591 38.133 123.766C50.9287 123.766 63.5656 123.766 76.1708 123.766C76.1708 120.622 76.1708 117.511 76.1708 114.209C69.7571 114.209 63.5021 114.209 57.1202 114.209C57.1202 110.938 57.1202 107.858 57.1202 104.779C54.0403 104.779 50.9287 104.779 47.6901 104.779C47.6901 107.922 47.6901 111.002 47.6901 114.304ZM57.1202 104.779H57.1519V104.747H57.1202V104.779ZM76.2026 123.797H76.1708V123.829L76.2026 123.797ZM95.158 161.867C95.1897 161.867 95.1897 161.867 95.2215 161.867L95.158 161.835V161.867ZM85.6644 142.975C82.4575 142.975 79.3777 142.975 76.3296 142.975C76.3296 155.675 76.3296 168.312 76.3296 180.886C79.5047 180.886 82.5528 180.886 85.7596 180.886C85.7596 177.711 85.7596 174.631 85.7596 171.361C89.03 171.361 92.1099 171.361 95.158 171.361C95.158 168.09 95.158 164.979 95.158 161.899C92.0146 161.899 88.903 161.899 85.6644 161.899C85.6644 155.421 85.6644 149.198 85.6644 142.975ZM180.981 152.373H180.949V152.405L180.981 152.373ZM161.93 152.373H161.899V152.405H161.93V152.373ZM180.949 142.88C174.631 142.88 168.344 142.88 161.93 142.88C161.93 146.15 161.93 149.262 161.93 152.342C168.281 152.342 174.599 152.342 180.949 152.342C180.949 149.198 180.949 146.055 180.949 142.88ZM180.981 142.848H180.949V142.88H180.981V142.848ZM190.475 123.924C187.204 123.924 184.124 123.924 180.981 123.924C180.981 130.306 180.981 136.561 180.981 142.848C184.156 142.848 187.3 142.848 190.475 142.848C190.475 136.53 190.475 130.243 190.475 123.924ZM76.2026 123.797L76.1708 123.829H76.2026V123.797ZM85.6009 133.227C85.6009 130.052 85.6009 126.973 85.6009 123.829C82.394 123.829 79.3142 123.829 76.2026 123.829C76.2026 126.973 76.2026 130.084 76.2026 133.227C79.4729 133.227 82.5528 133.227 85.6009 133.227ZM171.329 133.227C171.329 130.052 171.329 126.973 171.329 123.829C168.122 123.829 165.042 123.829 161.93 123.829C161.93 126.973 161.93 130.084 161.93 133.227C165.169 133.227 168.249 133.227 171.329 133.227ZM161.93 123.797L161.899 123.829H161.93V123.797ZM104.747 142.848V142.88H104.779V142.848H104.747ZM95.3485 133.354C95.3485 136.625 95.3485 139.705 95.3485 142.848C98.5553 142.848 101.635 142.848 104.747 142.848C104.747 139.673 104.747 136.53 104.747 133.354C101.603 133.354 98.4918 133.354 95.3485 133.354ZM57.1519 104.747C60.2953 104.747 63.4386 104.747 66.6455 104.747C66.6455 101.476 66.6455 98.3648 66.6455 95.2532C63.4704 95.2532 60.327 95.2532 57.1519 95.2532C57.1519 98.4283 57.1519 101.572 57.1519 104.747ZM66.6455 95.2532H66.6772V95.2215H66.6455V95.2532ZM57.1519 95.2532V95.2215H57.1202V95.2532C57.1519 95.2532 57.1519 95.2532 57.1519 95.2532ZM95.1897 161.835C98.3648 161.835 101.54 161.835 104.747 161.835C104.747 158.565 104.747 155.485 104.747 152.405C101.603 152.405 98.4918 152.405 95.1897 152.405C95.1897 155.675 95.1897 158.755 95.1897 161.835ZM95.1897 161.867V161.835C95.158 161.835 95.158 161.835 95.1262 161.835C95.158 161.835 95.1897 161.867 95.1897 161.867ZM104.779 152.405L104.747 152.373V152.405H104.779ZM104.874 180.854C108.049 180.854 111.129 180.854 114.272 180.854C114.272 177.647 114.272 174.567 114.272 171.456C111.129 171.456 108.017 171.456 104.874 171.456C104.874 174.694 104.874 177.774 104.874 180.854ZM114.304 171.456L114.272 171.424V171.456H114.304ZM133.227 180.854C133.227 177.679 133.227 174.599 133.227 171.456C130.021 171.456 126.941 171.456 123.829 171.456C123.829 174.599 123.829 177.711 123.829 180.854C127.1 180.854 130.148 180.854 133.227 180.854ZM123.829 171.392L123.797 171.424H123.829C123.829 171.424 123.829 171.424 123.829 171.392ZM104.779 104.747C107.922 104.747 111.065 104.747 114.272 104.747C114.272 101.476 114.272 98.3648 114.272 95.2532C111.097 95.2532 107.954 95.2532 104.779 95.2532C104.779 98.4283 104.779 101.572 104.779 104.747ZM114.272 95.2532H114.304V95.2215H114.272V95.2532ZM104.779 95.2532V95.2215H104.747V95.2532H104.779ZM123.829 95.2215L123.797 95.2532H123.829V95.2215ZM133.227 104.652C133.227 101.476 133.227 98.3966 133.227 95.2532C130.021 95.2532 126.941 95.2532 123.829 95.2532C123.829 98.3966 123.829 101.508 123.829 104.652C127.1 104.652 130.148 104.652 133.227 104.652ZM9.55707 95.2215H9.52532V95.2532H9.55707V95.2215ZM19.0189 85.7279C15.8755 85.7279 12.7004 85.6961 9.55707 85.6961C9.55707 82.5528 9.55707 79.4412 9.55707 76.2026C6.22321 76.2026 3.1116 76.2026 0 76.2026C0 79.3777 0 82.5528 0 85.7279C3.17511 85.7279 6.35021 85.7279 9.49357 85.7596C9.49357 88.9347 9.52532 92.0781 9.52532 95.2532C12.6369 95.2532 15.7168 95.2532 19.0189 95.2532C19.0189 92.0146 19.0189 88.8712 19.0189 85.7279ZM180.981 152.373L180.949 152.405H180.981V152.373ZM190.475 152.405H190.506V152.373H190.475V152.405ZM180.949 161.899C174.663 161.899 168.408 161.899 161.899 161.899C161.899 158.692 161.899 155.548 161.899 152.405C158.755 152.405 155.612 152.405 152.31 152.405C152.31 155.675 152.31 158.755 152.31 161.962C149.103 161.962 146.055 161.962 142.975 161.962C142.975 165.169 142.975 168.249 142.975 171.488C152.5 171.488 161.93 171.488 171.361 171.488C171.361 174.694 171.361 177.742 171.361 180.981C165.01 180.981 158.755 180.981 152.405 180.981C152.405 187.427 152.405 193.713 152.405 200C155.58 200 158.755 200 161.93 200C161.93 196.888 161.93 193.777 161.93 190.506C168.344 190.506 174.663 190.506 180.949 190.506C180.949 193.682 180.949 196.857 180.981 200C184.156 200 187.331 200 190.506 200C190.506 196.857 190.506 193.713 190.506 190.443C187.204 190.443 184.093 190.443 181.013 190.443C181.013 180.949 181.013 171.424 181.013 161.93C184.156 161.93 187.268 161.93 190.506 161.93C190.506 158.597 190.506 155.517 190.506 152.405C187.331 152.405 184.188 152.405 181.013 152.405C180.981 155.58 180.949 158.724 180.949 161.899ZM47.4996 19.1776C37.9425 19.1776 28.5125 19.1776 19.1141 19.1776C19.1141 28.703 19.1141 38.1013 19.1141 47.5631C28.576 47.5631 37.9743 47.5631 47.4996 47.5631C47.4996 38.006 47.4996 28.576 47.4996 19.1776ZM180.822 19.1459C171.297 19.1459 161.899 19.1459 152.437 19.1459C152.437 28.6077 152.437 38.006 152.437 47.5313C161.994 47.5313 171.424 47.5313 180.822 47.5313C180.822 37.9743 180.822 28.5442 180.822 19.1459ZM19.1776 180.886C28.703 180.886 38.1013 180.886 47.5631 180.886C47.5631 171.424 47.5631 162.026 47.5631 152.5C38.006 152.5 28.576 152.5 19.1776 152.5C19.1776 162.026 19.1776 171.456 19.1776 180.886Z" fill="#525976"/>
</svg>
