<svg width="39" height="33" viewBox="0 0 39 33" fill="none" xmlns="http://www.w3.org/2000/svg">
<path d="M19.5 32H24.8943C25.4696 32 26.045 31.851 26.5485 31.6275C35.1793 27.6784 37.4089 19.2588 37.9843 15.2353C38.1282 14.0431 37.2651 13 36.1143 13H19.5H2.88569C1.73492 13 0.871838 14.0431 1.01568 15.2353C1.59107 19.2588 3.8207 27.6784 12.4515 31.6275C12.955 31.851 13.5304 32 14.1057 32H19.5Z" stroke="white" stroke-width="2" stroke-miterlimit="10" stroke-linecap="round" stroke-linejoin="round"/>
<path d="M35.9434 12.5217C35.9434 12.5217 37.1753 7.08696 29.5666 6.72464C27.8999 6.65217 26.5231 6.43478 25.2187 6.14493C25.2187 6.14493 26.0158 1.72464 20.9434 1C21.0883 3.46377 17.6825 6.36232 10.0738 6.72464C2.46511 7.08696 3.697 12.5217 3.697 12.5217" stroke="white" stroke-width="2" stroke-miterlimit="10" stroke-linecap="round" stroke-linejoin="round"/>
</svg>
