<svg width="206" height="38" viewBox="0 0 206 38" fill="none" xmlns="http://www.w3.org/2000/svg">
<path d="M166.691 29.6023H172.546V21.7169H183.084V17.3808H172.546V13.0082H184.255V8.37939H166.71V29.6023H166.691ZM185.993 8.37939V13.0448H192.726V29.6023H198.581V13.0448H205.478V8.37939H185.993Z" fill="url(#paint0_linear_2_9)"/>
<path d="M48.9225 29.8767C47.1112 29.8767 45.4829 29.6206 44.0375 29.1266C42.5922 28.6143 41.3664 27.8825 40.3601 26.9312C39.3538 25.9615 38.5854 24.8272 38.0549 23.4733C37.5243 22.1377 37.2498 20.6375 37.2498 18.9909C37.2498 17.3442 37.5243 15.8623 38.0732 14.545C38.622 13.2277 39.4087 12.0934 40.4333 11.1237C41.4578 10.1541 42.6836 9.42225 44.1473 8.90997C45.6109 8.39769 47.2575 8.14155 49.0871 8.14155C51.1179 8.14155 52.9292 8.45258 54.4843 9.07463C56.0394 9.69668 57.3018 10.5566 58.2532 11.6726C59.2046 12.7886 59.79 14.0876 59.9913 15.5879H55.6918C55.4723 14.728 55.0698 14.0144 54.4477 13.4107C53.844 12.8252 53.0756 12.3678 52.1425 12.0385C51.2277 11.7092 50.2031 11.5628 49.0688 11.5628C47.4771 11.5628 46.1232 11.8556 44.9706 12.4593C43.8363 13.0631 42.9764 13.923 42.3909 15.039C41.8055 16.155 41.5127 17.4723 41.5127 18.9909C41.5127 20.1801 41.6774 21.2412 42.025 22.156C42.3726 23.0891 42.8666 23.8758 43.5252 24.4978C44.1839 25.1199 44.9706 25.6139 45.8854 25.9615C46.8002 26.3091 47.8247 26.4738 48.9407 26.4738C50.4593 26.4738 51.74 26.2359 52.8011 25.7419C53.8623 25.248 54.6673 24.571 55.2344 23.6562C55.8016 22.7598 56.076 21.6986 56.076 20.4728V19.869L57.3933 21.1497H48.5748V18.3322H60.3572V19.869C60.3572 21.4974 60.0645 22.9427 59.479 24.1868C58.8936 25.4309 58.0886 26.4738 57.0457 27.3154C56.0029 28.157 54.7953 28.779 53.3866 29.2181C52.0327 29.6572 50.5325 29.8767 48.9225 29.8767Z" fill="black"/>
<path d="M69.8161 29.8767C68.6635 29.8767 67.6206 29.6938 66.6875 29.3279C65.7545 28.962 64.9494 28.4131 64.2725 27.7179C63.5956 27.0043 63.0833 26.1627 62.7357 25.1931C62.3698 24.2051 62.2051 23.1257 62.2051 21.9182C62.2051 20.2533 62.5161 18.8262 63.1565 17.6187C63.7785 16.4295 64.675 15.4964 65.8276 14.856C66.9803 14.1974 68.3158 13.8864 69.8527 13.8864C70.8955 13.8864 71.8103 14.0144 72.597 14.2523C73.3837 14.4901 74.0607 14.8377 74.6278 15.2768C75.195 15.7159 75.6341 16.2282 75.9451 16.8137H76.1281L76.2379 14.1608H80.1348V29.6389H76V26.8763H75.817C75.3231 27.8093 74.5547 28.5412 73.4569 29.09C72.3775 29.6023 71.1517 29.8767 69.8161 29.8767ZM71.0785 26.7299C72.103 26.7299 72.9812 26.5286 73.7131 26.1261C74.4449 25.7236 74.9937 25.1748 75.378 24.4978C75.7622 23.8209 75.9634 23.0891 75.9634 22.2841V21.351C75.9634 20.5643 75.7622 19.8325 75.378 19.1738C74.9937 18.5152 74.4266 18.0029 73.7131 17.6187C72.9812 17.2345 72.103 17.0332 71.0785 17.0332C70.1454 17.0332 69.3221 17.2162 68.6269 17.5821C67.9133 17.948 67.3645 18.4969 66.962 19.2287C66.5595 19.9605 66.3582 20.8387 66.3582 21.8999C66.3582 22.8878 66.5595 23.7477 66.962 24.4795C67.3645 25.2114 67.9133 25.7602 68.6269 26.1444C69.2855 26.5286 70.1271 26.7299 71.0785 26.7299Z" fill="black"/>
<path d="M90.9292 34.7617C89.3009 34.7617 87.9105 34.5604 86.7578 34.1579C85.6052 33.7554 84.727 33.1882 84.0867 32.4381C83.4646 31.688 83.0987 30.8281 82.9889 29.8401H86.9225C87.0323 30.2975 87.2701 30.7 87.5994 31.0111C87.9471 31.3404 88.4044 31.5599 88.9899 31.7246C89.5754 31.871 90.234 31.9624 90.9658 31.9624C91.8989 31.9624 92.7039 31.8527 93.4175 31.6148C94.1127 31.377 94.6616 31.0111 95.0275 30.4805C95.4117 29.9499 95.5946 29.273 95.5946 28.4497V25.7785H95.4117C94.9543 26.6933 94.1859 27.4068 93.1247 27.9008C92.0636 28.4131 90.9109 28.6509 89.6486 28.6509C88.5142 28.6509 87.5263 28.468 86.6481 28.1204C85.7699 27.7544 85.0198 27.2605 84.3794 26.6018C83.7391 25.9432 83.2451 25.1748 82.9158 24.2783C82.5864 23.3818 82.4218 22.3572 82.4218 21.2412C82.4218 19.7593 82.7328 18.4786 83.3366 17.3625C83.9403 16.2648 84.8002 15.3866 85.9162 14.7646C87.014 14.1425 88.2947 13.8315 89.7583 13.8315C91.0756 13.8315 92.2282 14.0876 93.2345 14.5999C94.2408 15.1122 94.9726 15.8074 95.43 16.6856H95.6312L95.8142 14.1242H99.7111V27.974C99.7111 29.0534 99.5282 30.0231 99.1623 30.8647C98.7964 31.7063 98.2475 32.4015 97.4974 32.987C96.7656 33.5725 95.8508 34.0115 94.753 34.3043C93.6919 34.6153 92.3929 34.7617 90.9292 34.7617ZM91.0756 25.5956C92.0087 25.5956 92.8137 25.4309 93.4906 25.1016C94.1676 24.7723 94.6981 24.3149 95.0641 23.7111C95.43 23.1257 95.6129 22.4487 95.6129 21.7169L95.6495 20.8936C95.6495 20.1069 95.4666 19.3933 95.0824 18.7896C94.6981 18.1858 94.1859 17.7102 93.5089 17.3625C92.832 17.0149 92.0453 16.832 91.1305 16.832C90.2157 16.832 89.429 17.0149 88.7521 17.3625C88.0751 17.7284 87.5446 18.2224 87.1603 18.8811C86.7761 19.5397 86.5932 20.3081 86.5932 21.1863C86.5932 22.1011 86.7761 22.8878 87.1603 23.5465C87.5446 24.2051 88.0568 24.6991 88.7338 25.0467C89.3924 25.4126 90.1791 25.5956 91.0756 25.5956Z" fill="black"/>
<path d="M109.682 29.8767C108.53 29.8767 107.487 29.6938 106.554 29.3279C105.621 28.962 104.816 28.4131 104.139 27.7179C103.462 27.0043 102.949 26.1627 102.602 25.1931C102.236 24.2051 102.071 23.1257 102.071 21.9182C102.071 20.2533 102.382 18.8262 103.023 17.6187C103.645 16.4295 104.541 15.4964 105.694 14.856C106.846 14.1974 108.182 13.8864 109.719 13.8864C110.762 13.8864 111.676 14.0144 112.463 14.2523C113.25 14.4901 113.927 14.8377 114.494 15.2768C115.061 15.7159 115.5 16.2282 115.811 16.8137H115.994L116.104 14.1608H120.038V29.6389H115.903V26.8763H115.72C115.226 27.8093 114.457 28.5412 113.36 29.09C112.225 29.6023 111.018 29.8767 109.682 29.8767ZM110.926 26.7299C111.951 26.7299 112.829 26.5286 113.561 26.1261C114.293 25.7236 114.842 25.1748 115.226 24.4978C115.61 23.8209 115.811 23.0891 115.811 22.2841V21.351C115.811 20.5643 115.61 19.8325 115.226 19.1738C114.842 18.5152 114.274 18.0029 113.561 17.6187C112.829 17.2345 111.951 17.0332 110.926 17.0332C109.993 17.0332 109.17 17.2162 108.475 17.5821C107.761 17.948 107.212 18.4969 106.81 19.2287C106.407 19.9605 106.206 20.8387 106.206 21.8999C106.206 22.8878 106.407 23.7477 106.81 24.4795C107.212 25.2114 107.761 25.7602 108.475 26.1444C109.152 26.5286 109.975 26.7299 110.926 26.7299Z" fill="black"/>
<path d="M123.056 29.6023V14.1242H126.807L126.99 16.6856H127.1C127.447 15.8257 127.996 15.1488 128.746 14.6548C129.496 14.1425 130.393 13.9047 131.472 13.9047C131.747 13.9047 132.003 13.923 132.222 13.9413C132.46 13.9596 132.643 13.9778 132.808 13.9961V17.7467C132.588 17.7102 132.369 17.6736 132.131 17.637C131.893 17.6004 131.637 17.6004 131.381 17.6004C130.558 17.6004 129.844 17.7467 129.222 18.0395C128.6 18.3322 128.124 18.7896 127.758 19.3934C127.411 19.9971 127.209 20.7838 127.173 21.7352V29.6206H123.056V29.6023Z" fill="black"/>
<path d="M134.766 11.9653V8.37939H138.9V11.9653H134.766ZM134.766 29.6023V14.1242H138.9V29.6023H134.766Z" fill="black"/>
<path d="M141.992 29.6023V14.1242H145.981L146.127 17.0698H146.365C146.914 16.027 147.737 15.222 148.817 14.6731C149.914 14.1242 151.085 13.8498 152.348 13.8498C153.336 13.8498 154.25 13.9779 155.074 14.234C155.897 14.4901 156.61 14.9109 157.196 15.4598C157.781 16.0087 158.257 16.7588 158.586 17.6919C158.916 18.6249 159.08 19.7776 159.08 21.1314V29.6389H154.946V21.8633C154.946 20.8021 154.818 19.9056 154.543 19.1921C154.269 18.4786 153.848 17.948 153.244 17.5821C152.659 17.2162 151.89 17.0332 150.957 17.0332C149.987 17.0332 149.146 17.2345 148.432 17.6553C147.719 18.0761 147.152 18.6432 146.749 19.3934C146.347 20.1252 146.145 20.9851 146.145 21.9547V29.6389H141.992V29.6023Z" fill="black"/>
<path d="M0.896481 30.7001L0.256134 29.6572C0.420795 30.0414 0.622046 30.389 0.896481 30.7001ZM26.5286 21.2595L24.2234 11.5811C24.1319 11.7092 24.0221 11.819 23.9124 11.9287L23.2903 9.51372L23.6745 9.29417L16.3014 3.18344L12.8801 3.09196L10.7944 3.87867L3.64082 8.03178L1.77467 11.1969L2.23206 24.8272L1.77467 29.5108L9.22099 33.9933L12.8618 37.7988C13.2643 37.9268 13.6668 38 14.0693 38C14.4718 38 14.8926 37.9268 15.2768 37.7988L17.3259 35.2008L22.6866 32.2369L27.0409 28.5229L26.5286 21.2595Z" fill="white"/>
<path d="M26.2908 6.47665L15.9538 0.493982C15.3866 0.164661 14.728 0 14.0876 0C13.4473 0 12.7886 0.164661 12.2215 0.493982L1.86615 6.47665C0.713529 7.13529 0 8.37939 0 9.71497V28.2667C0 29.6023 0.713529 30.8464 1.86615 31.5051L12.2032 37.4694C12.4227 37.5975 12.6423 37.689 12.8618 37.7622V5.56187C12.8618 4.92152 13.2094 4.33606 13.7583 4.02504L14.0693 3.84208L14.3804 4.02504C14.9292 4.33606 15.2768 4.92152 15.2768 5.56187V37.7622C15.4964 37.689 15.7342 37.5792 15.9355 37.4694L26.2725 31.5051C27.4251 30.8281 28.1387 29.6023 28.1387 28.2667V9.71497C28.1753 8.37939 27.4617 7.13529 26.2908 6.47665ZM11.6543 32.5113C11.6543 32.7126 11.4348 32.8406 11.2518 32.7309L10.1175 32.0722C9.56861 31.7612 9.22099 31.1757 9.22099 30.5354V28.4497C9.22099 27.8093 9.56861 27.2239 10.1175 26.9129L11.2518 26.2542C11.4348 26.1444 11.6543 26.2725 11.6543 26.4738V32.5113ZM11.6543 12.6057V23.5648C11.6543 24.2051 11.3067 24.7906 10.7578 25.1016L4.50072 28.7058C4.42754 28.7607 4.31777 28.7607 4.24458 28.7058L3.87867 28.5046C3.71401 28.4131 3.62253 28.2484 3.62253 28.0655V27.4434C3.62253 26.8031 3.97015 26.2176 4.51902 25.9066L9.03804 23.3086L9.22099 23.1805V12.7155C9.22099 12.0751 9.56861 11.4896 10.1175 11.1786L11.2518 10.52C11.4348 10.4102 11.6543 10.5383 11.6543 10.7395V12.6057ZM18.9543 30.5537C18.9543 31.194 18.6066 31.7795 18.0578 32.0905L16.9234 32.7492C16.7405 32.8589 16.5209 32.7309 16.5209 32.5296V26.4921C16.5209 26.2908 16.7405 26.1627 16.9234 26.2725L18.0578 26.9311C18.6066 27.2422 18.9543 27.8276 18.9543 28.468V30.5537ZM24.5344 28.0472C24.5344 28.2301 24.4429 28.3948 24.2783 28.4863L23.9124 28.6875C23.8392 28.7424 23.7294 28.7424 23.6562 28.6875L17.3991 25.0833C16.8503 24.7723 16.5026 24.1868 16.5026 23.5465V12.6057V10.7395C16.5026 10.5383 16.7222 10.4102 16.9052 10.52L18.0395 11.1786C18.5883 11.4896 18.936 12.0751 18.936 12.7155V23.1805L19.1189 23.3086L23.6379 25.9066C24.1868 26.2176 24.5344 26.8031 24.5344 27.4434V28.0472Z" fill="url(#paint1_linear_2_9)"/>
<defs>
<linearGradient id="paint0_linear_2_9" x1="168.214" y1="34.2357" x2="194.363" y2="6.583" gradientUnits="userSpaceOnUse">
<stop stop-color="#999999"/>
<stop offset="1" stop-color="#CCCCCC"/>
</linearGradient>
<linearGradient id="paint1_linear_2_9" x1="5.11247" y1="34.4843" x2="22.0949" y2="5.17844" gradientUnits="userSpaceOnUse">
<stop stop-color="#0F7EFE"/>
<stop offset="0.2035" stop-color="#734FFB"/>
<stop offset="0.4598" stop-color="#AF39EC"/>
<stop offset="0.7111" stop-color="#D249BF"/>
<stop offset="0.8543" stop-color="#E65698"/>
<stop offset="1" stop-color="#F8636E"/>
</linearGradient>
</defs>
</svg>
